<svg xmlns="http://www.w3.org/2000/svg" fill="#333" width="512" height="512" viewBox="0 0 512 512"><path d="M360.353 277.271l-103.355 103.531-103.351-103.531h47.529v-38.77h111.646v38.77h47.531zm-159.176-56.781h111.646v-31.318h-111.646v31.318zm111.646-47.761v-25.53h-111.646v25.53h111.646zm-222.823 83.271c0 91.756 74.258 166 166 166 91.755 0 166-74.258 166-166 0-91.755-74.258-166-166-166-91.755 0-166 74.259-166 166zm372 0c0 113.771-92.229 206-206 206s-206-92.229-206-206 92.229-206 206-206 206 92.229 206 206z"/></svg>